HIERARCHY
ROOT Hips
{
	OFFSET -3.958830 18.904000 13.208200
	CHANNELS 6 Xposition Yposition Zposition Zrotation Yrotation Xrotation 
	JOINT LHipJoint
	{
		OFFSET 0.000000 0.000000 0.000000
		CHANNELS 3 Zrotation Yrotation Xrotation
		JOINT LeftUpLeg
		{
			OFFSET 1.800000 -1.400000 0.085000
			CHANNELS 3 Zrotation Yrotation Xrotation
			JOINT LeftLeg
			{
				OFFSET 2.215000 -6.000000 0.000000
				CHANNELS 3 Zrotation Yrotation Xrotation
				JOINT LeftFoot
				{
					OFFSET 2.500000 -6.900000 0.000000
					CHANNELS 3 Zrotation Yrotation Xrotation
					JOINT LeftToeBase
					{
						OFFSET 0.200000 -0.500000 1.950000
						CHANNELS 3 Zrotation Yrotation Xrotation
						End Site
						{
							OFFSET 0.000000 0.000000 0.000000
						}
					}
				}
			}
		}
	}
	JOINT RHipJoint
	{
		OFFSET 0.000000 0.000000 0.000000
		CHANNELS 3 Zrotation Yrotation Xrotation
		JOINT RightUpLeg
		{
			OFFSET -1.800000 -1.400000 0.085000
			CHANNELS 3 Zrotation Yrotation Xrotation
			JOINT RightLeg
			{
				OFFSET -2.215000 -6.000000 0.000000
				CHANNELS 3 Zrotation Yrotation Xrotation
				JOINT RightFoot
				{
					OFFSET -2.500000 -6.900000 0.000000
					CHANNELS 3 Zrotation Yrotation Xrotation
					JOINT RightToeBase
					{
						OFFSET -0.200000 -0.500000 1.950000
						CHANNELS 3 Zrotation Yrotation Xrotation
						End Site
						{
							OFFSET 0.000000 0.000000 0.000000
						}
					}
				}
			}
		}
	}
	JOINT LowerBack
	{
		OFFSET 0.000000 0.000000 0.000000
		CHANNELS 3 Zrotation Yrotation Xrotation
		JOINT Spine
		{
			OFFSET -0.087000 1.940000 -0.288900
			CHANNELS 3 Zrotation Yrotation Xrotation
			JOINT Spine1
			{
				OFFSET 0.000000 1.950000 0.060000
				CHANNELS 3 Zrotation Yrotation Xrotation
				JOINT Neck
				{
					OFFSET 0.000000 0.000000 0.000000
					CHANNELS 3 Zrotation Yrotation Xrotation
					JOINT Neck1
					{
						OFFSET 0.000000 1.600000 0.340000
						CHANNELS 3 Zrotation Yrotation Xrotation
						JOINT Head
						{
							OFFSET 0.000000 1.667000 -0.240000
							CHANNELS 3 Zrotation Yrotation Xrotation
							End Site
							{
								OFFSET 0.000000 0.000000 0.000000
							}
						}
					}
				}
				JOINT LeftShoulder
				{
					OFFSET 0.000000 0.000000 0.000000
					CHANNELS 3 Zrotation Yrotation Xrotation
					JOINT LeftArm
					{
						OFFSET 2.700000 1.550000 -0.730000
						CHANNELS 3 Zrotation Yrotation Xrotation
						JOINT LeftForeArm
						{
							OFFSET 5.450000 0.000000 0.000000
							CHANNELS 3 Zrotation Yrotation Xrotation
							JOINT LeftHand
							{
								OFFSET 3.450000 0.000000 0.000000
								CHANNELS 3 Zrotation Yrotation Xrotation
								JOINT LeftHandIndex1
								{
									OFFSET 0.750000 0.000000 0.000000
									CHANNELS 3 Zrotation Yrotation Xrotation
									End Site
									{
										OFFSET 0.000000 0.000000 0.000000
									}
								}
							}
						}
					}
				}
				JOINT RightShoulder
				{
					OFFSET 0.000000 0.000000 0.000000
					CHANNELS 3 Zrotation Yrotation Xrotation
					JOINT RightArm
					{
						OFFSET -2.700000 1.550000 -0.730000
						CHANNELS 3 Zrotation Yrotation Xrotation
						JOINT RightForeArm
						{
							OFFSET -5.450000 0.000000 0.000000
							CHANNELS 3 Zrotation Yrotation Xrotation
							JOINT RightHand
							{
								OFFSET -3.450000 0.000000 0.000000
								CHANNELS 3 Zrotation Yrotation Xrotation
								JOINT RightHandIndex1
								{
									OFFSET -0.750000 0.000000 0.000000
									CHANNELS 3 Zrotation Yrotation Xrotation
									End Site
									{
										OFFSET 0.000000 0.000000 0.000000
									}
								}
							}
						}
					}
				}
			}
		}
	}
}
MOTION
Frames: 14
Frame Time: 0.016667
-0.628250 17.346060 -1.574750 4.345051 -30.282210 -16.868335 -15.349440 11.902969 5.320237 3.381432 -0.856825 -56.419550 14.296296 3.599011 -0.043534 -0.418766 2.257119 3.549618 0.819530 0.633640 0.790960 18.183467 -10.183188 2.582534 -9.515280 0.490817 7.297735 11.225057 -6.985640 11.006254 -1.038818 -4.885533 2.695874 0.214850 -0.490590 0.170280 -3.197224 -1.893822 -8.965943 6.947033 1.638690 35.334005 -6.660733 6.116610 2.146070 5.531348 -6.508954 -10.155865 -13.890302 13.539059 56.001646 -11.361200 8.854840 -25.586720 -41.629640 -9.723906 1.448812 -43.595987 4.492657 -7.705421 -4.818415 -10.107037 -1.228683 -3.077159 2.841050 0.752350 -0.391440 0.532200 0.105860 29.759911 20.618038 7.138350 49.273764 22.047216 -9.336727 167.465287 80.347440 155.317600 1.977261 -1.259101 0.125330 0.081740 -0.349700 -0.274770 
-0.622030 17.343360 -1.593560 4.835084 -29.803041 -17.864247 -15.409140 11.986527 5.338639 3.808021 -0.749797 -57.163220 13.540739 3.630636 2.086881 -0.443771 2.269749 3.523782 0.839230 0.647550 0.816500 18.132066 -10.062233 2.556187 -10.078678 0.593704 8.105943 11.563273 -7.118879 11.059075 -1.072934 -4.961981 2.655618 0.225070 -0.522100 0.167000 -3.006129 -2.280158 -8.993882 5.450688 1.765507 36.680926 -5.715383 6.111890 2.409369 5.402040 -6.358215 -10.723101 -14.190634 13.767330 56.916592 -11.237550 8.693900 -26.673130 -42.306664 -11.290893 2.051514 -43.224127 4.689422 -7.719799 -5.081475 -10.149062 -1.251141 -3.034565 2.845406 0.785820 -0.417620 0.553220 0.094190 30.890554 22.230425 7.610410 47.386482 21.975886 -9.656722 175.800302 79.967861 164.107577 1.990414 -1.403869 0.122930 0.084040 -0.352120 -0.291630 
-0.617950 17.336730 -1.617120 5.980570 -29.710937 -19.421881 -15.512437 11.995365 5.478472 4.298998 -0.785258 -59.944264 14.419898 3.753030 7.345499 -0.422505 2.546372 3.398558 0.846520 0.645710 0.833970 18.069707 -9.852927 2.471040 -11.223614 0.825352 9.183635 11.891741 -7.272112 11.002953 -1.103853 -5.069393 2.606912 0.223700 -0.537550 0.165400 -2.751913 -2.742711 -9.072214 2.959842 2.253138 38.539454 -4.414935 6.226954 2.625186 5.103101 -6.246752 -11.590395 -14.859306 14.186679 57.710418 -11.049940 8.557040 -27.031990 -43.072772 -13.356874 2.982449 -43.022096 5.492503 -8.083246 -4.908502 -11.038909 -1.296073 -2.990966 2.863811 0.809000 -0.434020 0.565220 0.083060 32.524367 24.380623 8.373317 44.980943 21.642806 -10.136547 -175.062140 78.756159 173.669383 2.011165 -1.533192 0.120770 0.090140 -0.347510 -0.302790 
-0.613290 17.330130 -1.617980 7.065123 -30.551227 -20.712373 -15.597781 11.913890 5.677823 7.843459 0.528943 -62.027107 11.320012 4.663375 17.373348 -0.317133 3.481360 3.005000 0.871760 0.687520 0.844100 18.035036 -9.696397 2.347242 -12.470837 1.238834 9.585938 12.371263 -7.535833 11.800817 -1.134533 -5.182786 2.550398 0.229330 -0.569130 0.180030 -2.579765 -2.934534 -9.150045 1.297000 3.024153 39.660332 -3.515383 6.749514 2.912548 4.940676 -5.962753 -12.283734 -14.848973 14.317467 58.643311 -10.994180 8.551970 -27.149160 -42.814873 -14.610899 3.567092 -42.959111 5.943525 -8.462685 -6.350854 -11.933984 -1.259378 -2.938734 2.912036 0.806400 -0.451440 0.598020 0.089700 32.761331 25.679488 9.019869 43.778119 21.049654 -10.622374 -170.030824 77.189882 178.628509 2.040177 -1.619017 0.156180 0.065700 -0.368890 -0.290270 
-0.601140 17.339690 -1.603550 8.022087 -32.170128 -21.794190 -15.673691 11.792622 5.882162 12.876171 2.858195 -61.868652 7.364742 6.640787 25.434297 -0.205205 4.974862 2.413742 0.893560 0.717400 0.854820 18.022395 -9.547631 2.167690 -13.756134 1.771797 9.316663 12.897011 -7.879291 13.307967 -1.153203 -5.280408 2.498554 0.231710 -0.603090 0.194180 -2.449588 -3.006629 -9.246231 0.228859 3.765600 40.557083 -2.963256 7.406239 3.292274 4.872377 -5.920789 -12.902916 -15.206542 14.806773 59.550041 -11.238980 8.582790 -27.814290 -42.255235 -15.372041 4.011716 -42.763246 6.663512 -9.268415 -8.900136 -13.948259 -1.190659 -2.877558 2.963044 0.817980 -0.471440 0.626860 0.085910 32.435682 26.720723 9.585666 43.038059 20.688934 -10.860876 -166.650049 75.154795 -178.017006 2.057576 -1.663066 0.184120 0.046030 -0.375610 -0.288740 
-0.579830 17.338450 -1.552050 8.776189 -34.461370 -22.184769 -15.744874 11.474983 6.276507 19.194966 5.581055 -59.907112 -0.022566 10.479378 32.481362 -0.027582 7.052792 1.657073 0.893960 0.727750 0.843010 18.052731 -9.406724 1.907178 -14.634654 2.164462 8.345491 12.504808 -8.018694 15.103428 -1.126805 -5.270006 2.506728 0.230300 -0.594670 0.187500 -2.407955 -2.817888 -9.377595 0.284567 4.117734 40.594755 -3.014082 7.912192 3.222590 4.789463 -6.327921 -12.804806 -16.139628 15.440246 59.124166 -11.117900 8.444620 -27.614140 -40.661674 -14.365064 3.897135 -43.459999 7.562053 -10.460041 -12.527026 -16.570952 -0.979073 -2.854038 2.987171 0.805000 -0.470990 0.625040 0.097010 30.942078 26.261958 9.397651 43.218807 20.389405 -10.292390 -169.691122 73.163831 178.458874 2.062620 -1.635377 0.192200 0.055160 -0.380620 -0.274100 
-0.554710 17.349470 -1.480690 9.925717 -37.376285 -22.579784 -15.799031 11.031402 6.751478 24.890301 8.074715 -57.286058 -7.146208 15.363663 38.474424 0.302755 9.201991 0.928976 0.901130 0.746890 0.834300 18.114777 -9.294102 1.611447 -15.886443 2.746159 6.742878 12.177071 -8.198831 17.342732 -1.091806 -5.268086 2.497913 0.230760 -0.588300 0.182240 -2.463755 -2.379234 -9.516765 0.717843 4.486797 40.237020 -3.595332 8.416452 3.125788 4.537346 -7.036072 -12.483887 -17.598094 16.329291 58.023803 -10.465880 8.168840 -27.304190 -38.397144 -12.453252 3.573857 -44.278565 8.559309 -11.770525 -17.175813 -19.539044 -0.491945 -2.840265 3.030372 0.777730 -0.476240 0.621600 0.108330 29.001424 25.064917 8.935671 44.304377 20.387187 -9.211761 -174.307371 71.344830 172.779871 2.080307 -1.602424 0.212400 0.055020 -0.391980 -0.251180 
-0.538650 17.372400 -1.421740 10.745776 -39.744269 -22.591416 -15.833408 10.810255 7.016437 27.626710 8.894773 -55.486670 -10.960645 19.566228 44.556421 0.628301 10.778754 0.451428 0.849690 0.683800 0.804440 18.148807 -9.268344 1.399801 -16.321120 2.818816 5.211212 11.105975 -8.090188 18.640668 -1.013260 -5.163985 2.541033 0.206420 -0.554510 0.174570 -2.450744 -2.121274 -9.580453 0.490712 4.922438 39.535552 -3.823265 8.730673 3.223828 4.472853 -7.070862 -12.206287 -17.050116 16.418062 56.694279 -11.432900 8.864420 -26.328640 -36.274145 -11.037257 3.572967 -44.419015 9.836293 -12.783514 -21.961035 -22.176289 0.208655 -2.879171 3.041145 0.765930 -0.443360 0.583230 0.094960 26.922773 23.876553 8.469662 45.701657 20.428155 -8.392956 -178.740163 70.078810 166.793384 2.075028 -1.544399 0.181700 0.059480 -0.360380 -0.261610 
-0.529430 17.417720 -1.367460 11.066931 -41.898220 -22.352767 -15.804449 10.891616 6.959662 28.080441 8.568544 -53.157293 -12.071536 22.508551 50.021667 0.905591 11.779141 0.175664 0.829150 0.646330 0.797660 18.171530 -9.389008 1.298788 -16.082739 2.620100 3.666185 9.571587 -7.753384 19.558205 -0.950422 -4.979547 2.599397 0.190200 -0.536480 0.189130 -2.460652 -2.007974 -9.492329 0.529759 5.274617 39.127786 -3.719058 9.019430 3.247432 4.212395 -7.317022 -11.806458 -17.270604 16.984796 55.120745 -12.153580 9.477190 -26.131970 -34.205476 -9.353966 3.329928 -44.061546 10.483045 -13.083399 -27.061601 -23.216012 0.943294 -2.927758 3.060290 0.764170 -0.424410 0.566720 0.087830 25.266768 22.405007 7.948211 46.936511 20.224260 -7.576399 175.733899 68.613547 158.973601 2.080382 -1.494878 0.171320 0.050150 -0.343120 -0.269150 
-0.524760 17.464160 -1.325540 10.641698 -44.173843 -21.343528 -15.741963 11.072425 6.791277 27.770582 8.056731 -50.463212 -12.402879 24.543639 53.755972 1.130009 12.413913 0.022312 0.804240 0.621720 0.787400 18.196982 -9.580773 1.272565 -14.936528 2.383036 1.685606 7.915639 -7.266785 20.566738 -0.872063 -4.727558 2.698547 0.179550 -0.513470 0.176770 -2.532850 -1.861512 -9.346840 1.122529 5.445718 38.420309 -3.778142 9.244832 3.344256 3.925552 -7.564081 -11.512617 -17.555711 17.533308 53.242873 -12.652370 10.176910 -25.584880 -32.364073 -7.971909 3.115465 -43.253808 10.764581 -12.888917 -31.269614 -23.280091 1.556169 -2.981257 3.065340 0.739010 -0.401950 0.538940 0.081820 23.893480 21.089716 7.562609 48.082889 20.018979 -6.536851 172.555355 66.969436 153.908202 2.098560 -1.477947 0.159530 0.056580 -0.332540 -0.270490 
-0.518120 17.512170 -1.306270 10.709529 -45.689618 -20.687724 -15.674419 11.395085 6.492806 25.996685 6.734165 -47.909141 -12.294420 25.697817 56.648202 1.293029 12.822234 -0.075332 0.795850 0.612350 0.777450 18.192678 -9.780848 1.284247 -13.909160 2.111194 -0.117529 6.172224 -6.709202 21.235070 -0.808469 -4.471622 2.784245 0.178090 -0.504240 0.177650 -2.508517 -1.957393 -9.141955 0.344829 5.822407 37.759340 -3.078953 9.259427 3.562087 3.415926 -7.908678 -11.579679 -18.502674 18.456448 51.764983 -12.501930 10.698370 -25.301660 -30.276250 -7.317413 3.314978 -42.815766 10.944691 -12.832297 -35.207862 -23.294878 2.037303 -3.019247 3.087681 0.733450 -0.394550 0.529120 0.081280 22.916142 20.572453 7.460899 48.760721 19.601833 -6.142479 169.300773 65.929998 148.569117 2.120110 -1.461393 0.154340 0.050670 -0.327640 -0.269920 
-0.491930 17.555280 -1.293070 9.925104 -46.636729 -19.552263 -15.581468 11.806039 6.083365 23.282581 4.987788 -45.239295 -11.330652 25.481956 58.477260 1.381776 12.914735 -0.086944 0.787200 0.601880 0.777560 18.178640 -9.999029 1.400059 -12.593789 1.928750 -1.742149 5.205665 -6.340943 21.822557 -0.767709 -4.290693 2.834909 0.166680 -0.502490 0.195360 -2.529127 -2.089889 -8.920417 0.408041 5.637980 37.524745 -2.688853 8.924839 4.062769 3.222899 -7.936645 -11.637113 -18.561473 18.659243 50.853861 -13.187190 11.058070 -24.906360 -28.894245 -7.321057 3.620725 -41.625693 11.075045 -12.704319 -39.768984 -23.079113 2.506930 -3.050568 3.135672 0.714580 -0.382590 0.526210 0.074430 21.995943 20.409733 7.346468 49.076299 19.759061 -5.951872 168.289657 65.497309 146.690185 2.136296 -1.471305 0.168170 0.029670 -0.322440 -0.266230 
-0.454800 17.577930 -1.270960 8.495189 -47.986958 -17.774559 -15.452331 12.243858 5.613534 20.210703 3.378407 -42.348514 -9.450783 24.245841 59.656497 1.369305 12.772472 -0.032780 0.760240 0.564920 0.756290 18.182418 -10.253722 1.587487 -11.053995 1.890218 -3.583262 4.569556 -6.042146 22.451291 -0.716236 -4.117115 2.895943 0.156300 -0.476030 0.183430 -2.696678 -2.135700 -8.664522 1.691216 4.778732 37.245749 -2.814306 8.207775 4.281387 2.929413 -8.684190 -12.098713 -20.664495 19.797000 48.965566 -12.719610 11.168180 -24.497660 -27.169357 -7.546172 4.251470 -41.493628 11.652505 -12.946097 -43.192274 -23.088645 2.742650 -3.086165 3.137433 0.716490 -0.374240 0.500580 0.064640 20.998956 20.682504 7.402834 48.941759 19.577267 -6.174527 164.730812 65.419237 141.229146 2.153881 -1.411068 0.145110 0.046370 -0.296650 -0.269050 
-0.415420 17.578870 -1.246730 6.683280 -49.483155 -15.958222 -15.325785 12.730086 5.074724 16.984399 2.160760 -38.939543 -6.873441 22.257586 60.328058 1.289393 12.401753 0.079177 0.735520 0.536350 0.736020 18.182931 -10.505967 1.813428 -9.232115 1.909550 -5.010270 3.959352 -5.795570 23.295362 -0.694227 -3.989322 2.942162 0.147520 -0.465310 0.164290 -2.858677 -2.218686 -8.391645 3.010286 3.889685 37.244178 -2.994816 7.506372 4.610294 2.785598 -9.275159 -12.773662 -22.550974 20.982591 47.520860 -12.397420 11.433990 -25.368940 -25.025108 -8.112970 5.028543 -41.854158 12.019593 -13.340898 -46.524857 -22.448335 2.602589 -3.107630 3.112409 0.746580 -0.384190 0.493360 0.051690 19.339573 21.189109 7.603567 49.107568 19.444738 -7.044426 161.210463 65.929348 135.962582 2.173232 -1.310650 0.116280 0.075480 -0.268090 -0.278720 
